<?xml version="1.0" standalone="no"?>
<!DOCTYPE svg PUBLIC "-//W3C//DTD SVG 20010904//EN"
 "http://www.w3.org/TR/2001/REC-SVG-20010904/DTD/svg10.dtd">
<svg version="1.0" xmlns="http://www.w3.org/2000/svg"
 width="700.000000pt" height="700.000000pt" viewBox="0 0 700.000000 700.000000"
 preserveAspectRatio="xMidYMid meet">
<metadata>
Created by potrace 1.11, written by Peter Selinger 2001-2013
</metadata>
<g transform="translate(0.000000,700.000000) scale(0.100000,-0.100000)"
fill="#000000" stroke="none">
<path d="M4825 6611 c-169 -61 -311 -182 -566 -481 -64 -74 -141 -167 -172
-207 -53 -67 -126 -155 -235 -282 -72 -84 -171 -183 -229 -229 -153 -119 -301
-107 -517 43 -248 172 -351 197 -580 139 -313 -80 -668 -343 -867 -644 -71
-106 -185 -317 -218 -400 -115 -294 -200 -537 -216 -619 -2 -9 -17 -83 -34
-166 -17 -82 -33 -168 -36 -190 -3 -22 -9 -53 -12 -70 -4 -16 -7 -32 -8 -35
-1 -3 -4 -27 -9 -53 -4 -27 -9 -59 -12 -70 -2 -12 -9 -49 -15 -82 -8 -49 -29
-157 -63 -325 -3 -14 -12 -50 -21 -80 -8 -30 -17 -66 -20 -80 -14 -72 -111
-344 -169 -473 -13 -28 -47 -106 -77 -172 -48 -109 -271 -556 -476 -955 l-79
-155 -95 -1 -94 -1 -3 -86 -3 -87 48 -1 c81 0 2014 -7 3848 -13 957 -3 2046
-7 2420 -8 l680 -3 3 88 3 87 -85 0 c-96 0 -86 -11 -111 115 -9 44 -20 96 -25
115 -5 19 -11 49 -13 65 -3 17 -22 107 -42 200 -20 94 -39 179 -41 190 -2 11
-8 40 -14 65 -5 25 -12 56 -14 70 -3 14 -14 66 -24 115 -11 50 -22 104 -25
120 -4 23 -61 307 -92 455 -1 8 -6 35 -10 60 -7 43 -9 54 -19 99 -2 10 -7 34
-10 52 -3 19 -8 45 -11 59 -5 25 -11 60 -20 115 -2 17 -7 41 -9 55 -3 14 -8
41 -10 60 -3 19 -8 46 -10 60 -3 14 -7 50 -11 81 -3 31 -7 65 -9 75 -5 25 -15
126 -21 194 -2 30 -6 89 -10 130 -3 41 -7 116 -10 165 -3 50 -7 135 -10 190
-3 55 -8 141 -10 190 -8 166 -21 347 -30 425 -2 19 -7 60 -10 90 -19 170 -40
289 -70 407 -90 347 -344 835 -598 1153 -281 350 -587 519 -802 441z"/>
</g>
</svg>
