<?xml version="1.0" standalone="yes"?>

<svg version="1.1" viewBox="0.0 0.0 960.0 960.0" fill="none" stroke="none" stroke-linecap="square" stroke-miterlimit="10" xmlns="http://www.w3.org/2000/svg" xmlns:xlink="http://www.w3.org/1999/xlink"><clipPath id="p.0"><path d="m0 0l960.0 0l0 960.0l-960.0 0l0 -960.0z" clip-rule="nonzero"></path></clipPath><g clip-path="url(#p.0)"><path fill="#000000" fill-opacity="0.0" d="m0 0l960.0 0l0 960.0l-960.0 0z" fill-rule="evenodd"></path><defs><linearGradient id="p.1" gradientUnits="userSpaceOnUse" gradientTransform="matrix(28.708086317024257 0.0 0.0 28.708086317024257 0.0 0.0)" spreadMethod="pad" x1="1.1774783325161426" y1="4.319179793094283" x2="1.1773744066136431" y2="33.02726610993042"><stop offset="0.0" stop-color="#f2f2f2"></stop><stop offset="1.0" stop-color="#a6a6a6"></stop></linearGradient></defs><path fill="url(#p.1)" d="m33.80315 948.14966c17.534996 -39.323975 79.64699 -158.40381 105.20998 -235.94397c25.562988 -77.54022 28.520126 -166.98767 48.167984 -229.29712c19.647858 -62.30945 39.507874 -109.38931 69.71916 -144.55957c30.211273 -35.170258 72.675415 -61.754395 111.54855 -66.462036c38.87314 -4.7076416 70.14087 62.862793 121.69028 38.216187c51.54944 -24.646606 130.5639 -187.48053 187.60632 -186.09575c57.04242 1.3847656 122.95801 109.11005 154.64825 194.40437c31.690308 85.29431 19.85962 212.40524 35.49347 317.36154c15.63385 104.9563 48.59143 260.31366 58.309692 312.37634" fill-rule="evenodd"></path><path stroke="#000000" stroke-width="24.0" stroke-linejoin="round" stroke-linecap="butt" d="m33.80315 948.14966c17.534996 -39.323975 79.64699 -158.40381 105.20998 -235.94397c25.562988 -77.54022 28.520126 -166.98767 48.167984 -229.29712c19.647858 -62.30945 39.507874 -109.38931 69.71916 -144.55957c30.211273 -35.170258 72.675415 -61.754395 111.54855 -66.462036c38.87314 -4.7076416 70.14087 62.862793 121.69028 38.216187c51.54944 -24.646606 130.5639 -187.48053 187.60632 -186.09575c57.04242 1.3847656 122.95801 109.11005 154.64825 194.40437c31.690308 85.29431 19.85962 212.40524 35.49347 317.36154c15.63385 104.9563 48.59143 260.31366 58.309692 312.37634" fill-rule="evenodd"></path><defs><radialGradient id="p.2" gradientUnits="userSpaceOnUse" gradientTransform="matrix(16.75807589717837 0.0 0.0 16.75807589717837 0.0 0.0)" spreadMethod="pad" cx="27.830589977584435" cy="46.99767584767323" fx="27.830589977584435" fy="46.99767584767323" r="16.758075714111328"><stop offset="0.0" stop-color="#f48208"></stop><stop offset="1.0" stop-color="#703e08"></stop></radialGradient></defs><path fill="url(#p.2)" d="m234.4147 944.1083c11.197281 -26.301208 23.239716 -105.50049 67.183716 -157.80737c43.944 -52.306946 139.64917 -146.8728 196.48032 -156.03412c56.831177 -9.161377 111.1264 48.463562 144.50659 101.06604c33.380127 52.602478 46.478516 178.79059 55.77423 214.5487" fill-rule="evenodd"></path><path stroke="#000000" stroke-width="24.0" stroke-linejoin="round" stroke-linecap="butt" d="m234.4147 944.1083c11.197281 -26.301208 23.239716 -105.50049 67.183716 -157.80737c43.944 -52.306946 139.64917 -146.8728 196.48032 -156.03412c56.831177 -9.161377 111.1264 48.463562 144.50659 101.06604c33.380127 52.602478 46.478516 178.79059 55.77423 214.5487" fill-rule="evenodd"></path><path fill="#000000" fill-opacity="0.0" d="m-1.7637795 949.0184l963.5276 1.102356" fill-rule="evenodd"></path><path stroke="#000000" stroke-width="24.0" stroke-linejoin="round" stroke-linecap="butt" d="m-1.7637795 949.0184l963.5276 1.102356" fill-rule="evenodd"></path></g></svg>

